<mxfile host="65bd71144e">
    <diagram id="fjN8D4Odn0497USpxgly" name="Page-1">
        <mxGraphModel dx="1072" dy="1609" grid="1" gridSize="10" guides="1" tooltips="1" connect="1" arrows="1" fold="1" page="1" pageScale="1" pageWidth="1169" pageHeight="827" math="0" shadow="0">
            <root>
                <mxCell id="0"/>
                <mxCell id="1" parent="0"/>
                <mxCell id="118" value="schema data structure" style="shape=umlFrame;whiteSpace=wrap;html=1;verticalAlign=top;width=145;height=30;" parent="1" vertex="1">
                    <mxGeometry x="40" y="-800" width="915" height="740" as="geometry"/>
                </mxCell>
                <mxCell id="14" value="&lt;p style=&quot;margin: 0px ; margin-top: 4px ; text-align: center&quot;&gt;&lt;i&gt;&amp;lt;&amp;lt;struct&amp;gt;&amp;gt;&lt;/i&gt;&lt;br&gt;&lt;b&gt;registry_schema_t&lt;/b&gt;&lt;br&gt;&lt;/p&gt;&lt;hr size=&quot;1&quot;&gt;&lt;p style=&quot;margin: 0px ; margin-left: 4px&quot;&gt;+&amp;nbsp;&lt;span&gt;char *name&lt;/span&gt;&lt;/p&gt;&lt;p style=&quot;margin: 0px ; margin-left: 4px&quot;&gt;+ char *description&lt;/p&gt;&lt;hr size=&quot;1&quot;&gt;&lt;p style=&quot;margin: 0px ; margin-left: 4px&quot;&gt;+ get(int param_id, registry_instance_t *instance, void *buf, int buf_len, void *context)&lt;/p&gt;&lt;p style=&quot;margin: 0px ; margin-left: 4px&quot;&gt;+ set(int param_id, registry_instance_t *instance, void *val, int val_len, void *context)&lt;/p&gt;&lt;p style=&quot;margin: 0px ; margin-left: 4px&quot;&gt;&amp;nbsp;&lt;/p&gt;" style="verticalAlign=top;align=left;overflow=fill;fontSize=12;fontFamily=Helvetica;html=1;" parent="1" vertex="1">
                    <mxGeometry x="70" y="-734" width="460" height="120" as="geometry"/>
                </mxCell>
                <mxCell id="15" value="&lt;p style=&quot;margin: 0px ; margin-top: 4px ; text-align: center&quot;&gt;&lt;i&gt;&amp;lt;&amp;lt;enum&amp;gt;&amp;gt;&lt;/i&gt;&lt;br&gt;&lt;b&gt;registry_type_t&lt;/b&gt;&lt;/p&gt;&lt;hr size=&quot;1&quot;&gt;&lt;p style=&quot;margin: 0px ; margin-left: 4px&quot;&gt;REGISTRY_TYPE_NONE&lt;br&gt;&lt;/p&gt;&lt;p style=&quot;margin: 0px ; margin-left: 4px&quot;&gt;&lt;br&gt;&lt;/p&gt;&lt;p style=&quot;margin: 0px ; margin-left: 4px&quot;&gt;REGISTRY_TYPE_STRING&lt;br&gt;&lt;/p&gt;&lt;p style=&quot;margin: 0px ; margin-left: 4px&quot;&gt;REGISTRY_TYPE_BOOL&lt;br&gt;&lt;/p&gt;&lt;p style=&quot;margin: 0px ; margin-left: 4px&quot;&gt;&lt;br&gt;&lt;/p&gt;&lt;p style=&quot;margin: 0px ; margin-left: 4px&quot;&gt;REGISTRY_TYPE_UINT8&lt;br&gt;&lt;/p&gt;&lt;p style=&quot;margin: 0px ; margin-left: 4px&quot;&gt;REGISTRY_TYPE_UINT16&lt;br&gt;&lt;/p&gt;&lt;p style=&quot;margin: 0px ; margin-left: 4px&quot;&gt;REGISTRY_TYPE_UINT32&lt;br&gt;&lt;/p&gt;&lt;p style=&quot;margin: 0px ; margin-left: 4px&quot;&gt;REGISTRY_TYPE_UINT64&lt;br&gt;&lt;/p&gt;&lt;p style=&quot;margin: 0px ; margin-left: 4px&quot;&gt;&lt;br&gt;&lt;/p&gt;&lt;p style=&quot;margin: 0px ; margin-left: 4px&quot;&gt;REGISTRY_TYPE_INT8&lt;br&gt;&lt;/p&gt;&lt;p style=&quot;margin: 0px ; margin-left: 4px&quot;&gt;REGISTRY_TYPE_INT16&lt;br&gt;&lt;/p&gt;&lt;p style=&quot;margin: 0px ; margin-left: 4px&quot;&gt;REGISTRY_TYPE_INT32&lt;br&gt;&lt;/p&gt;&lt;p style=&quot;margin: 0px ; margin-left: 4px&quot;&gt;REGISTRY_TYPE_INT64&lt;br&gt;&lt;/p&gt;&lt;p style=&quot;margin: 0px ; margin-left: 4px&quot;&gt;&lt;br&gt;&lt;/p&gt;&lt;p style=&quot;margin: 0px ; margin-left: 4px&quot;&gt;REGISTRY_TYPE_FLOAT32&lt;br&gt;&lt;/p&gt;&lt;p style=&quot;margin: 0px ; margin-left: 4px&quot;&gt;REGISTRY_TYPE_FLOAT64&lt;br&gt;&lt;/p&gt;" style="verticalAlign=top;align=left;overflow=fill;fontSize=12;fontFamily=Helvetica;html=1;" parent="1" vertex="1">
                    <mxGeometry x="490" y="-384" width="170" height="290" as="geometry"/>
                </mxCell>
                <mxCell id="16" value="&lt;p style=&quot;margin: 0px ; margin-top: 4px ; text-align: center&quot;&gt;&lt;i&gt;&amp;lt;&amp;lt;struct&amp;gt;&amp;gt;&lt;/i&gt;&lt;br&gt;&lt;b&gt;registry_schema_item_t&lt;/b&gt;&lt;br&gt;&lt;/p&gt;&lt;hr size=&quot;1&quot;&gt;&lt;p style=&quot;margin: 0px ; margin-left: 4px&quot;&gt;+ int id&lt;br&gt;&lt;/p&gt;&lt;p style=&quot;margin: 0px ; margin-left: 4px&quot;&gt;+ char *name&lt;/p&gt;&lt;p style=&quot;margin: 0px ; margin-left: 4px&quot;&gt;+ char *description&lt;/p&gt;&lt;p style=&quot;margin: 0px ; margin-left: 4px&quot;&gt;&amp;nbsp;&lt;/p&gt;" style="verticalAlign=top;align=left;overflow=fill;fontSize=12;fontFamily=Helvetica;html=1;" parent="1" vertex="1">
                    <mxGeometry x="150" y="-544" width="220" height="90" as="geometry"/>
                </mxCell>
                <mxCell id="17" value="&lt;p style=&quot;margin: 0px ; margin-top: 4px ; text-align: center&quot;&gt;&lt;i&gt;&amp;lt;&amp;lt;enum&amp;gt;&amp;gt;&lt;/i&gt;&lt;br&gt;&lt;b&gt;registry_schema_type_t&lt;/b&gt;&lt;/p&gt;&lt;hr size=&quot;1&quot;&gt;&lt;p style=&quot;margin: 0px ; margin-left: 4px&quot;&gt;REGISTRY_SCHEMA_TYPE_GROUP&lt;/p&gt;&lt;p style=&quot;margin: 0px ; margin-left: 4px&quot;&gt;REGISTRY_SCHEMA_TYPE_PARAMETER&lt;/p&gt;" style="verticalAlign=top;align=left;overflow=fill;fontSize=12;fontFamily=Helvetica;html=1;" parent="1" vertex="1">
                    <mxGeometry x="440" y="-539" width="250" height="80" as="geometry"/>
                </mxCell>
                <mxCell id="18" value="&lt;p style=&quot;margin: 0px ; margin-top: 4px ; text-align: center&quot;&gt;&lt;i&gt;&amp;lt;&amp;lt;struct&amp;gt;&amp;gt;&lt;/i&gt;&lt;br&gt;&lt;b&gt;registry_group_t&lt;/b&gt;&lt;br&gt;&lt;/p&gt;&lt;hr size=&quot;1&quot;&gt;&lt;p style=&quot;margin: 0px ; margin-left: 4px&quot;&gt;&lt;br&gt;&lt;/p&gt;&lt;p style=&quot;margin: 0px ; margin-left: 4px&quot;&gt;&amp;nbsp;&lt;/p&gt;" style="verticalAlign=top;align=left;overflow=fill;fontSize=12;fontFamily=Helvetica;html=1;" parent="1" vertex="1">
                    <mxGeometry x="110" y="-264" width="130" height="50" as="geometry"/>
                </mxCell>
                <mxCell id="19" value="&lt;p style=&quot;margin: 0px ; margin-top: 4px ; text-align: center&quot;&gt;&lt;i&gt;&amp;lt;&amp;lt;struct&amp;gt;&amp;gt;&lt;/i&gt;&lt;br&gt;&lt;b&gt;registry_parameter_t&lt;/b&gt;&lt;br&gt;&lt;/p&gt;&lt;hr size=&quot;1&quot;&gt;&lt;p style=&quot;margin: 0px ; margin-left: 4px&quot;&gt;&lt;br&gt;&lt;/p&gt;" style="verticalAlign=top;align=left;overflow=fill;fontSize=12;fontFamily=Helvetica;html=1;" parent="1" vertex="1">
                    <mxGeometry x="290" y="-264" width="140" height="50" as="geometry"/>
                </mxCell>
                <mxCell id="66" value="" style="endArrow=diamondThin;endFill=1;endSize=24;html=1;edgeStyle=elbowEdgeStyle;elbow=vertical;" parent="1" source="15" target="19" edge="1">
                    <mxGeometry width="160" relative="1" as="geometry">
                        <mxPoint x="-30" y="76" as="sourcePoint"/>
                        <mxPoint x="130" y="76" as="targetPoint"/>
                    </mxGeometry>
                </mxCell>
                <mxCell id="67" value="" style="endArrow=diamondThin;endFill=1;endSize=24;html=1;edgeStyle=elbowEdgeStyle;entryX=0.5;entryY=1;entryDx=0;entryDy=0;elbow=vertical;" parent="1" source="18" target="98" edge="1">
                    <mxGeometry width="160" relative="1" as="geometry">
                        <mxPoint x="360" y="-134" as="sourcePoint"/>
                        <mxPoint x="275" y="-314" as="targetPoint"/>
                    </mxGeometry>
                </mxCell>
                <mxCell id="68" value="" style="endArrow=diamondThin;endFill=1;endSize=24;html=1;edgeStyle=elbowEdgeStyle;elbow=vertical;" parent="1" source="19" target="98" edge="1">
                    <mxGeometry width="160" relative="1" as="geometry">
                        <mxPoint x="194" y="-254" as="sourcePoint"/>
                        <mxPoint x="275" y="-314" as="targetPoint"/>
                    </mxGeometry>
                </mxCell>
                <mxCell id="69" value="" style="endArrow=diamondThin;endFill=1;endSize=24;html=1;edgeStyle=elbowEdgeStyle;" parent="1" source="16" target="18" edge="1">
                    <mxGeometry width="160" relative="1" as="geometry">
                        <mxPoint x="343.8461538461538" y="-294" as="sourcePoint"/>
                        <mxPoint x="306.9230769230769" y="-374" as="targetPoint"/>
                        <Array as="points">
                            <mxPoint x="120" y="-374"/>
                            <mxPoint x="70" y="-414"/>
                            <mxPoint x="100" y="-359"/>
                        </Array>
                    </mxGeometry>
                </mxCell>
                <mxCell id="70" value="" style="endArrow=diamondThin;endFill=1;endSize=24;html=1;edgeStyle=elbowEdgeStyle;elbow=vertical;" parent="1" source="17" target="16" edge="1">
                    <mxGeometry width="160" relative="1" as="geometry">
                        <mxPoint x="160" y="-454" as="sourcePoint"/>
                        <mxPoint x="-10" y="-444" as="targetPoint"/>
                    </mxGeometry>
                </mxCell>
                <mxCell id="72" value="" style="endArrow=diamondThin;endFill=1;endSize=24;html=1;edgeStyle=elbowEdgeStyle;elbow=vertical;" parent="1" source="16" target="14" edge="1">
                    <mxGeometry width="160" relative="1" as="geometry">
                        <mxPoint x="520" y="-504" as="sourcePoint"/>
                        <mxPoint x="380" y="-454" as="targetPoint"/>
                        <Array as="points">
                            <mxPoint x="260" y="-594"/>
                        </Array>
                    </mxGeometry>
                </mxCell>
                <mxCell id="90" value="1..*" style="text;html=1;align=center;verticalAlign=middle;resizable=0;points=[];autosize=1;strokeColor=none;" parent="1" vertex="1">
                    <mxGeometry x="120" y="-518" width="30" height="20" as="geometry"/>
                </mxCell>
                <mxCell id="91" value="0..1" style="text;html=1;align=center;verticalAlign=middle;resizable=0;points=[];autosize=1;strokeColor=none;" parent="1" vertex="1">
                    <mxGeometry x="320" y="-284" width="40" height="20" as="geometry"/>
                </mxCell>
                <mxCell id="92" value="0..1" style="text;html=1;align=center;verticalAlign=middle;resizable=0;points=[];autosize=1;strokeColor=none;" parent="1" vertex="1">
                    <mxGeometry x="170" y="-284" width="40" height="20" as="geometry"/>
                </mxCell>
                <mxCell id="95" value="1" style="text;html=1;align=center;verticalAlign=middle;resizable=0;points=[];autosize=1;strokeColor=none;" parent="1" vertex="1">
                    <mxGeometry x="421" y="-518" width="20" height="20" as="geometry"/>
                </mxCell>
                <mxCell id="96" value="1..*" style="text;html=1;align=center;verticalAlign=middle;resizable=0;points=[];autosize=1;strokeColor=none;" parent="1" vertex="1">
                    <mxGeometry x="260" y="-565" width="30" height="20" as="geometry"/>
                </mxCell>
                <mxCell id="98" value="&lt;p style=&quot;margin: 0px ; margin-top: 4px ; text-align: center&quot;&gt;&lt;i&gt;&amp;lt;&amp;lt;union&amp;gt;&amp;gt;&lt;/i&gt;&lt;/p&gt;" style="verticalAlign=top;align=left;overflow=fill;fontSize=12;fontFamily=Helvetica;html=1;" parent="1" vertex="1">
                    <mxGeometry x="205" y="-404" width="110" height="30" as="geometry"/>
                </mxCell>
                <mxCell id="99" value="" style="endArrow=diamondThin;endFill=1;endSize=24;html=1;edgeStyle=orthogonalEdgeStyle;curved=1;" parent="1" source="98" target="16" edge="1">
                    <mxGeometry width="160" relative="1" as="geometry">
                        <mxPoint x="370.05882352941194" y="-194" as="sourcePoint"/>
                        <mxPoint x="275" y="-284" as="targetPoint"/>
                    </mxGeometry>
                </mxCell>
                <mxCell id="104" value="1" style="text;html=1;align=center;verticalAlign=middle;resizable=0;points=[];autosize=1;strokeColor=none;" parent="1" vertex="1">
                    <mxGeometry x="470" y="-258" width="20" height="20" as="geometry"/>
                </mxCell>
                <mxCell id="110" value="" style="endArrow=diamondThin;endFill=1;endSize=24;html=1;edgeStyle=elbowEdgeStyle;elbow=vertical;" parent="1" source="158" target="14" edge="1">
                    <mxGeometry width="160" relative="1" as="geometry">
                        <mxPoint x="518" y="-661.5" as="sourcePoint"/>
                        <mxPoint x="270" y="-604" as="targetPoint"/>
                    </mxGeometry>
                </mxCell>
                <mxCell id="111" value="0..*" style="text;html=1;align=center;verticalAlign=middle;resizable=0;points=[];autosize=1;strokeColor=none;" parent="1" vertex="1">
                    <mxGeometry x="610" y="-694" width="30" height="20" as="geometry"/>
                </mxCell>
                <mxCell id="119" value="1" style="text;html=1;align=center;verticalAlign=middle;resizable=0;points=[];autosize=1;strokeColor=none;" parent="1" vertex="1">
                    <mxGeometry x="260" y="-424" width="20" height="20" as="geometry"/>
                </mxCell>
                <mxCell id="158" value="&lt;p style=&quot;margin: 4px 0px 0px ; text-align: center&quot;&gt;&lt;i&gt;&amp;lt;&amp;lt;struct&amp;gt;&amp;gt;&lt;/i&gt;&lt;br&gt;&lt;b&gt;registry_instance_t&lt;/b&gt;&lt;/p&gt;&lt;hr size=&quot;1&quot;&gt;&lt;p style=&quot;margin: 0px 0px 0px 4px&quot;&gt;&lt;/p&gt;&lt;p style=&quot;margin: 0px ; margin-left: 4px&quot;&gt;+&amp;nbsp;&lt;span&gt;char *name&lt;/span&gt;&lt;/p&gt;&lt;p style=&quot;margin: 0px ; margin-left: 4px&quot;&gt;+ void *data&lt;/p&gt;&lt;hr size=&quot;1&quot;&gt;&lt;p style=&quot;margin: 0px ; margin-left: 4px&quot;&gt;+ commit_cb(int *path, int path_len, void* context)&lt;/p&gt;&lt;p style=&quot;margin: 0px ; margin-left: 4px&quot;&gt;&amp;nbsp;&lt;/p&gt;" style="verticalAlign=top;align=left;overflow=fill;fontSize=12;fontFamily=Helvetica;html=1;" parent="1" vertex="1">
                    <mxGeometry x="640" y="-729" width="279" height="110" as="geometry"/>
                </mxCell>
            </root>
        </mxGraphModel>
    </diagram>
</mxfile>